<svg xmlns="http://www.w3.org/2000/svg" viewBox="0 0 70.82 65.86"><defs><style>.cls-1{fill:#010101;}</style></defs><g id="Layer_2" data-name="Layer 2"><g id="Layer_1-2" data-name="Layer 1"><path class="cls-1" d="M29.35,29.34H42.08a3.63,3.63,0,1,0,0-7.26H29.35a3.63,3.63,0,0,0,0,7.26Z"/><path class="cls-1" d="M33.86,19.42h3.71a5,5,0,0,0,0-10.1H33.86a5,5,0,0,0,0,10.1Z"/><path class="cls-1" d="M46,32.11H25.44a2.65,2.65,0,0,0,0,5.3H46a2.65,2.65,0,0,0,0-5.3Z"/><path class="cls-1" d="M22.84,22.14a1,1,0,0,0-1.43.15L.23,48.54A1,1,0,0,0,.38,50,1,1,0,0,0,1,50.2a1,1,0,0,0,.79-.38L23,23.57A1,1,0,0,0,22.84,22.14Z"/><path class="cls-1" d="M45.47,40.42H26a2.05,2.05,0,1,0,0,4.1h19.5a2,2,0,1,0,0-4.1Z"/><path class="cls-1" d="M43.64,47.61H27.79a1.77,1.77,0,1,0,0,3.53H43.64a1.77,1.77,0,1,0,0-3.53Z"/><path class="cls-1" d="M40.85,54.46H30.58a1.4,1.4,0,0,0,0,2.79H40.85a1.4,1.4,0,0,0,0-2.79Z"/><path class="cls-1" d="M35.72,60.64a1,1,0,0,0-1,1v3.18a1,1,0,0,0,2,0V61.66A1,1,0,0,0,35.72,60.64Z"/><path class="cls-1" d="M1,32.37a1,1,0,0,0,.5-.13l14.87-8.42a1,1,0,0,0-1-1.78L.52,30.47a1,1,0,0,0-.39,1.39A1,1,0,0,0,1,32.37Z"/><path class="cls-1" d="M49.88,22.34a.94.94,0,1,0-1.46,1.19l20.65,25.4a1,1,0,0,0,.73.34.94.94,0,0,0,.73-1.53Z"/><path class="cls-1" d="M31.9,5.74a1,1,0,0,0,1,.69,1,1,0,0,0,.33-.06,1,1,0,0,0,.63-1.29L32.3.68a1,1,0,0,0-1.93.67Z"/><path class="cls-1" d="M38.16,6.37a1,1,0,0,0,.33.06,1,1,0,0,0,1-.69L41,1.35A1,1,0,0,0,39.05.68l-1.52,4.4A1,1,0,0,0,38.16,6.37Z"/><path class="cls-1" d="M55,23.83l14.33,7.8a1.07,1.07,0,0,0,.49.12,1,1,0,0,0,.89-.53,1,1,0,0,0-.4-1.38L56,22a1,1,0,0,0-1.38.4A1,1,0,0,0,55,23.83Z"/></g></g></svg>